<?xml version="1.0" encoding="utf-8"?>
<!-- Generator: Adobe Illustrator 16.0.4, SVG Export Plug-In . SVG Version: 6.00 Build 0)  -->
<!DOCTYPE svg PUBLIC "-//W3C//DTD SVG 1.1//EN" "http://www.w3.org/Graphics/SVG/1.1/DTD/svg11.dtd">
<svg version="1.1" xmlns="http://www.w3.org/2000/svg" xmlns:xlink="http://www.w3.org/1999/xlink" x="0px" y="0px" width="1024px"
	 height="720px" viewBox="0 0 1920 1080" enable-background="new 0 0 1920 1080" xml:space="preserve">
<g id="鼠标">
	<path fill="#09334B" d="M517.792,416c0,0-0.004,0.104-0.004,0.187l4.091,127.655c0,57.566,63.387,80.766,100.222,80.766
		c34.184,0,97.627-23.123,100.222-81.602l2.045-127.629c2.045,0.731,2.043,0.623,2.043,0.623H517.792z"/>
	<path fill="#34B3F2" d="M517.789,405H617v-98.727C562,306.273,517.789,351,517.789,405z"/>
	<path fill="#174D6A" d="M726.411,405H627v-98.727C682,306.273,726.411,351,726.411,405z"/>
	<g id="说明">
		<polyline fill="none" stroke="#09334B" stroke-width="5" stroke-miterlimit="10" points="670.37,362.095 719.691,283.5 836,283.5 
					"/>
		<polyline fill="none" stroke="#09334B" stroke-width="5" stroke-miterlimit="10" points="574.784,362.524 501.899,277.5 
			392,277.5 		"/>
		<g>
			<path fill="#34B3F2" d="M422.44,237.406c-0.659-0.347-1.373-0.521-2.14-0.521c-2.205,0-3.308,1.366-3.308,4.099v2.966h4.656
				v2.913h-4.656v16.97h-3.487v-16.97h-3.397v-2.913h3.397v-3.128c0-2.133,0.614-3.808,1.843-5.024
				c1.228-1.216,2.789-1.825,4.683-1.825c1.007,0,1.81,0.114,2.409,0.342V237.406z"/>
			<path fill="#34B3F2" d="M424.579,236.938c0-0.623,0.213-1.147,0.638-1.573s0.95-0.638,1.573-0.638
				c0.635,0,1.171,0.209,1.609,0.629c0.437,0.42,0.656,0.947,0.656,1.582c0,0.623-0.219,1.142-0.656,1.555
				c-0.438,0.413-0.974,0.62-1.609,0.62c-0.636,0-1.163-0.207-1.582-0.62C424.788,238.08,424.579,237.562,424.579,236.938z
				 M424.992,263.832v-19.882h3.523v19.882H424.992z"/>
			<path fill="#34B3F2" d="M445.468,247.437c-0.587-0.419-1.396-0.629-2.427-0.629c-1.366,0-2.493,0.638-3.38,1.915
				s-1.33,2.957-1.33,5.042v10.067h-3.523v-19.882h3.523v4.045h0.072c1.007-2.924,2.744-4.386,5.213-4.386
				c0.803,0,1.42,0.09,1.852,0.27V247.437z"/>
			<path fill="#34B3F2" d="M464.541,254.789h-13.914c0.06,2.122,0.641,3.76,1.744,4.917c1.103,1.157,2.643,1.734,4.62,1.734
				c2.229,0,4.272-0.713,6.13-2.139v3.146c-1.75,1.234-4.069,1.852-6.957,1.852c-2.876,0-5.121-0.911-6.732-2.732
				c-1.612-1.821-2.418-4.35-2.418-7.586c0-3.044,0.884-5.555,2.652-7.532c1.768-1.978,3.964-2.966,6.588-2.966
				c2.601,0,4.632,0.836,6.094,2.508c1.462,1.672,2.193,4.012,2.193,7.02V254.789z M461.018,251.967
				c-0.012-1.797-0.438-3.188-1.276-4.17c-0.839-0.982-2.02-1.474-3.541-1.474c-1.402,0-2.616,0.521-3.641,1.564
				c-1.024,1.042-1.669,2.403-1.933,4.081H461.018z"/>
		</g>
		<g>
			<path fill="#34B3F2" d="M749.401,251.015c1.978-1.234,4.26-1.852,6.849-1.852c4.793,0,7.191,2.517,7.191,7.55v12.799h-3.488
				v-3.074h-0.09c-1.378,2.361-3.41,3.542-6.094,3.542c-1.93,0-3.463-0.521-4.602-1.564c-1.139-1.042-1.708-2.451-1.708-4.225
				c0-3.715,2.199-5.878,6.597-6.489l5.896-0.827c0-3.248-1.342-4.872-4.027-4.872c-2.385,0-4.56,0.803-6.525,2.409V251.015z
				 M755.297,260.166c-1.63,0.215-2.753,0.623-3.371,1.222c-0.618,0.6-0.926,1.438-0.926,2.517c0,0.947,0.335,1.72,1.006,2.319
				c0.671,0.599,1.558,0.898,2.661,0.898c1.534,0,2.798-0.539,3.793-1.618s1.492-2.433,1.492-4.062v-1.906L755.297,260.166z"/>
			<path fill="#34B3F2" d="M768.852,242.62c0-0.623,0.213-1.147,0.638-1.573s0.95-0.638,1.573-0.638
				c0.635,0,1.171,0.209,1.609,0.629c0.437,0.42,0.656,0.947,0.656,1.582c0,0.623-0.219,1.142-0.656,1.555
				c-0.438,0.413-0.974,0.62-1.609,0.62c-0.636,0-1.163-0.207-1.582-0.62C769.061,243.762,768.852,243.243,768.852,242.62z
				 M769.265,269.513v-19.882h3.523v19.882H769.265z"/>
			<path fill="#34B3F2" d="M807.699,269.513h-3.523v-11.415c0-2.157-0.335-3.7-1.006-4.629c-0.671-0.929-1.774-1.394-3.308-1.394
				c-1.294,0-2.403,0.605-3.326,1.816s-1.384,2.643-1.384,4.296v11.325h-3.523v-11.775c0-3.775-1.457-5.663-4.369-5.663
				c-1.342,0-2.454,0.575-3.334,1.726c-0.881,1.15-1.321,2.619-1.321,4.404v11.307h-3.523v-19.882h3.523v3.146h0.072
				c1.414-2.409,3.481-3.613,6.202-3.613c1.33,0,2.504,0.366,3.523,1.097c1.019,0.731,1.726,1.72,2.121,2.966
				c1.474-2.708,3.679-4.063,6.615-4.063c4.375,0,6.562,2.696,6.562,8.089V269.513z"/>
		</g>
		<path fill="#34B3F2" d="M1141,329.394c0,5.305-4.301,9.606-9.606,9.606h-43.787c-5.306,0-9.606-4.301-9.606-9.606v-43.788
			c0-5.305,4.301-9.606,9.606-9.606h43.787c5.306,0,9.606,4.301,9.606,9.606V329.394z"/>
		<path fill="#34B3F2" d="M1071,398.394c0,5.305-4.301,9.606-9.606,9.606h-43.787c-5.306,0-9.606-4.301-9.606-9.606v-43.788
			c0-5.305,4.301-9.606,9.606-9.606h43.787c5.306,0,9.606,4.301,9.606,9.606V398.394z"/>
		<path fill="#34B3F2" d="M1141,398.394c0,5.305-4.301,9.606-9.606,9.606h-43.787c-5.306,0-9.606-4.301-9.606-9.606v-43.788
			c0-5.305,4.301-9.606,9.606-9.606h43.787c5.306,0,9.606,4.301,9.606,9.606V398.394z"/>
		<path fill="#34B3F2" d="M1212,398.394c0,5.305-4.301,9.606-9.606,9.606h-43.787c-5.306,0-9.606-4.301-9.606-9.606v-43.788
			c0-5.305,4.301-9.606,9.606-9.606h43.787c5.306,0,9.606,4.301,9.606,9.606V398.394z"/>
		<g>
			<path fill="#FFFFFF" d="M1096.573,294.769l5.195,22.392l6.229-22.392h4.036l6.244,22.434l5.195-22.434h4.094l-7.242,27.561
				h-3.921l-6.36-22.852l-6.398,22.852h-3.921l-7.205-27.561H1096.573z"/>
		</g>
		<g>
			<path fill="#FFFFFF" d="M1035.989,358.425h4.215l10.003,27.561h-4.09l-2.877-8.255h-10.813l-2.989,8.255h-3.827L1035.989,358.425
				z M1042.181,374.692l-4.243-12.177l-4.41,12.177H1042.181z"/>
		</g>
		<g>
			<path fill="#FFFFFF" d="M1102.125,379.232c0.084,1.563,0.439,2.833,1.065,3.809c1.193,1.826,3.296,2.739,6.308,2.739
				c1.35,0,2.579-0.2,3.688-0.601c2.145-0.775,3.217-2.164,3.217-4.165c0-1.501-0.454-2.57-1.363-3.208
				c-0.921-0.625-2.362-1.169-4.325-1.632l-3.617-0.844c-2.363-0.55-4.035-1.157-5.017-1.82c-1.696-1.15-2.545-2.87-2.545-5.159
				c0-2.477,0.834-4.509,2.502-6.098c1.667-1.588,4.028-2.383,7.084-2.383c2.812,0,5.2,0.697,7.166,2.092
				c1.966,1.395,2.948,3.625,2.948,6.689h-3.509c-0.18-1.476-0.563-2.608-1.15-3.396c-1.092-1.438-2.944-2.158-5.559-2.158
				c-2.11,0-3.628,0.463-4.551,1.388c-0.924,0.926-1.386,2.001-1.386,3.227c0,1.351,0.546,2.339,1.637,2.964
				c0.715,0.401,2.333,0.901,4.854,1.501l3.745,0.882c1.806,0.425,3.199,1.007,4.181,1.745c1.697,1.288,2.545,3.158,2.545,5.61
				c0,3.052-1.082,5.234-3.248,6.548c-2.165,1.313-4.681,1.97-7.547,1.97c-3.343,0-5.959-0.875-7.85-2.626
				c-1.892-1.738-2.818-4.096-2.781-7.073H1102.125z"/>
		</g>
		<g>
			<path fill="#FFFFFF" d="M1172.207,359.565h11.017c3.739,0,6.64,1.345,8.701,4.034c1.839,2.427,2.759,5.535,2.759,9.325
				c0,2.927-0.543,5.572-1.629,7.936c-1.913,4.178-5.203,6.267-9.868,6.267h-10.979V359.565z M1182.491,383.937
				c1.234,0,2.25-0.131,3.045-0.394c1.419-0.488,2.58-1.426,3.485-2.814c0.722-1.113,1.241-2.539,1.56-4.277
				c0.184-1.038,0.275-2.001,0.275-2.89c0-3.415-0.664-6.066-1.99-7.955c-1.327-1.888-3.465-2.833-6.412-2.833h-6.476v21.164
				H1182.491z"/>
		</g>
		<path fill="#34B3F2" d="M1460,499.394c0,5.305-4.301,9.606-9.606,9.606h-43.787c-5.306,0-9.606-4.301-9.606-9.606v-43.788
			c0-5.305,4.301-9.606,9.606-9.606h43.787c5.306,0,9.606,4.301,9.606,9.606V499.394z"/>
		<path fill="#34B3F2" d="M1390,568.395c0,5.305-4.301,9.605-9.606,9.605h-43.787c-5.306,0-9.606-4.301-9.606-9.605v-43.789
			c0-5.305,4.301-9.605,9.606-9.605h43.787c5.306,0,9.606,4.301,9.606,9.605V568.395z"/>
		<path fill="#34B3F2" d="M1460,568.395c0,5.305-4.301,9.605-9.606,9.605h-43.787c-5.306,0-9.606-4.301-9.606-9.605v-43.789
			c0-5.305,4.301-9.605,9.606-9.605h43.787c5.306,0,9.606,4.301,9.606,9.605V568.395z"/>
		<path fill="#34B3F2" d="M1531,568.395c0,5.305-4.301,9.605-9.606,9.605h-43.787c-5.306,0-9.606-4.301-9.606-9.605v-43.789
			c0-5.305,4.301-9.605,9.606-9.605h43.787c5.306,0,9.606,4.301,9.606,9.605V568.395z"/>
		<polyline fill="#FFFFFF" points="1428.06,467.67 1420.227,487 1428.112,487 1436,487 		"/>
		<polyline fill="#FFFFFF" points="1347.67,547.164 1367,555.222 1367,547.336 1367,539 		"/>
		<polyline fill="#FFFFFF" points="1509.33,544.947 1490,537 1490,544.886 1490,553 		"/>
		<polyline fill="#FFFFFF" points="1428.276,557.33 1436.445,538 1428.561,538 1420,538 		"/>
	</g>
</g>
</svg>
