<?xml version="1.0" encoding="UTF-8" standalone="no"?>
<svg width="696px" height="426px" viewBox="0 0 696 426" version="1.1" xmlns="http://www.w3.org/2000/svg" xmlns:xlink="http://www.w3.org/1999/xlink" xmlns:sketch="http://www.bohemiancoding.com/sketch/ns">
    <title>second-pass</title>
    <description>Created with Sketch (http://www.bohemiancoding.com/sketch)</description>
    <defs></defs>
    <g id="Page-1" stroke="none" stroke-width="1" fill="none" fill-rule="evenodd" sketch:type="MSPage">
        <g id="all-bars-one-chart" sketch:type="MSLayerGroup">
            <g id="MB-lines" transform="translate(97.997956, 21.319745)" stroke-width="0.25" sketch:type="MSShapeGroup">
                <path d="M0,-0.492940943 L596.991905,-0.492940943" id="4-MB-line" stroke="#B9B9B9"></path>
                <path d="M0,89.7635713 L596.991905,89.7635713" id="3-MB-line" stroke="#B9B9B9"></path>
                <path d="M0,181.034202 L596.991905,181.034202" id="2-MB-line" stroke="#B9B9B9"></path>
                <path d="M0,272.304832 L596.991905,272.304832" id="1-MB-line" stroke="#B9B9B9"></path>
                <path d="M1.50506929,363.575462 L597.486836,363.575462" id="0-MB-line" stroke="#BFBFBF" stroke-linecap="square"></path>
            </g>
            <g id="1st-pass" transform="translate(90.000000, 73.099998)" stroke="#36CC7C" sketch:type="MSShapeGroup" opacity="0.2">
                <g id="REDO" transform="translate(0.000000, 1.946113)">
                    <path d="M606.098145,124 L406.221275,124 L405.60004,212.435349 L245.938729,212.435349 L245.317494,224.727869 L167.039976,224.727869 L166.418741,212.435349 L108.021255,212.435349 L107.4,243.653069 L27.880002,243.653069 L27.2587469,254.795833 L26.6375019,280 L8,280 L-0.0922851771,280" id="1st-pass-1x-new" stroke-width="2"></path>
                    <path d="M0.220214898,213 L8,213 L27.2587469,213 L27.880002,124.250008 L28.501247,88.7500118 L107.4,88.7500118 L108.021255,0 L605.698242,0" id="1st-pass-2x-new"></path>
                </g>
            </g>
            <g id="2nd-pass" transform="translate(90.000000, 73.053887)" stroke="#9845B5" sketch:type="MSShapeGroup">
                <g id="REDO" transform="translate(0.000000, 1.946113)">
                    <path d="M605.983399,124 L406.221275,124 L405.60004,212.628747 L245.938729,212.628747 L245.317494,224.94815 L167.039976,224.94815 L166.418741,225.479898 L27.880002,225.479898 L27.2587469,236.647131 L26.6375019,261.906316 L8.62125006,261.906316 L8,283 L0.0273438238,283" id="2nd-pass-1x-new" stroke-width="2"></path>
                    <path d="M0.197265648,226 L8,226 L8.62125006,213.123768 L26.6375019,213.123768 L27.2587469,124.322206 L27.880002,88.8015816 L166.418741,88.8015816 L167.039976,35.5206347 L245.317494,35.5206347 L245.938729,0 L605.641113,0" id="2nd-pass-2x-new"></path>
                </g>
            </g>
            <path d="M90.1347656,75.0712891 L694.754095,75.0668407" id="status-quo-line" stroke-opacity="0.2" stroke="#000000" stroke-width="2" stroke-linecap="square" sketch:type="MSShapeGroup"></path>
            <g id="y-axis-labels" sketch:type="MSShapeGroup">
                <g id="status-quo" transform="translate(31.328810, 62.780871)">
                    <path d="M4.90888167,3.52842339 C4.53116821,2.22636732 3.74552422,1.60561966 2.49151553,1.60561966 C1.07131293,1.60561966 0.0137152437,2.57459162 0.0137152437,3.89178788 C0.0137152437,4.48225517 0.240343319,5.01216171 0.648273854,5.3755262 C1.01087877,5.69347012 1.38859223,5.86001218 2.35553869,6.1779561 C3.36781076,6.49590003 3.66998152,6.75328321 3.66998152,7.29832994 C3.66998152,7.90393741 3.21672537,8.29758227 2.50662407,8.29758227 C1.690763,8.29758227 1.23750685,7.88879723 1.05620439,7.01066638 L-0.243129908,7.26804956 C-0.107153063,8.00991872 0.0590408588,8.37328321 0.436754318,8.73664769 C0.905119006,9.1908533 1.63032885,9.43309629 2.44618992,9.43309629 C4.04769498,9.43309629 5.18083536,8.46412433 5.18083536,7.08636732 C5.18083536,6.45047947 4.92399021,5.87515237 4.45562552,5.52692807 C4.10812914,5.2544047 3.76063275,5.08786265 2.97498876,4.83047947 C2.15912769,4.5579561 2.05336792,4.52767573 1.84184838,4.37627386 C1.61522031,4.22487199 1.47924346,3.96748881 1.47924346,3.66468508 C1.47924346,3.11963835 1.87206546,2.74113367 2.43108138,2.74113367 C3.06563999,2.74113367 3.44335345,3.07421779 3.7001986,3.86150751 L4.90888167,3.52842339 Z M6.6161465,-0.165782214 L6.54060381,1.7873019 L5.52833174,1.7873019 L5.52833174,3.02879723 L6.4952782,3.02879723 L6.4952782,6.43533928 C6.4952782,7.72225517 6.54060381,8.13104022 6.75212335,8.55496545 C7.03918558,9.14543274 7.62841857,9.43309629 8.53493087,9.43309629 C8.92775287,9.43309629 9.18459802,9.40281592 9.66807125,9.3119748 L9.66807125,8.08561966 C9.39611756,8.11590003 9.24503218,8.13104022 9.04862118,8.13104022 C8.56514795,8.13104022 8.26297718,7.99477853 8.14210888,7.73739536 C8.02124057,7.49515237 8.00613203,7.32861031 8.00613203,6.32935797 L8.00613203,3.02879723 L9.42633464,3.02879723 L9.42633464,1.7873019 L8.00613203,1.7873019 L8.00613203,-0.302043896 L6.6161465,-0.165782214 Z M11.8285922,3.89178788 C11.9796776,3.10449816 12.3724996,2.74113367 13.0372753,2.74113367 C13.8229193,2.74113367 14.1401986,3.19533928 14.1401986,4.34599349 L14.1401986,4.64879723 C13.9891132,4.63365704 13.8682449,4.63365704 13.8078108,4.63365704 C12.7653216,4.63365704 11.7530495,4.81533928 11.2393592,5.11814302 C10.4990409,5.52692807 10.0760018,6.32935797 10.0760018,7.28318975 C10.0760018,8.58524582 10.8918629,9.43309629 12.1609801,9.43309629 C13.1430351,9.43309629 13.6869425,9.05459162 14.2610669,8.00991872 C14.2610669,8.67608695 14.2761754,8.88804956 14.3517181,9.25141405 L15.8021378,9.25141405 C15.6963781,8.79720844 15.6812695,8.52468508 15.6812695,7.19234863 L15.6812695,4.64879723 C15.6812695,3.39216171 15.5906183,2.90767573 15.2884475,2.4837505 C14.880517,1.92356358 14.094873,1.60561966 13.1581436,1.60561966 C11.6019642,1.60561966 10.5896921,2.362629 10.3479555,3.71010564 L11.8285922,3.89178788 Z M14.1401986,5.98113367 C14.1401986,6.73814302 14.0344388,7.17720844 13.7171595,7.64655423 C13.4300973,8.08561966 13.0977095,8.29758227 12.6746704,8.29758227 C12.0401118,8.29758227 11.6775069,7.88879723 11.6775069,7.16206825 C11.6775069,6.11739536 12.3422825,5.58748881 13.6869425,5.58748881 C13.7775937,5.58748881 13.9437876,5.602629 14.1401986,5.61776919 L14.1401986,5.98113367 Z M17.6755966,-0.165782214 L17.6000539,1.7873019 L16.5877818,1.7873019 L16.5877818,3.02879723 L17.5547283,3.02879723 L17.5547283,6.43533928 C17.5547283,7.72225517 17.6000539,8.13104022 17.8115734,8.55496545 C18.0986356,9.14543274 18.6878686,9.43309629 19.5943809,9.43309629 C19.9872029,9.43309629 20.2440481,9.40281592 20.7275213,9.3119748 L20.7275213,8.08561966 C20.4555676,8.11590003 20.3044822,8.13104022 20.1080712,8.13104022 C19.624598,8.13104022 19.3224273,7.99477853 19.2015589,7.73739536 C19.0806906,7.49515237 19.0655821,7.32861031 19.0655821,6.32935797 L19.0655821,3.02879723 L20.4857847,3.02879723 L20.4857847,1.7873019 L19.0655821,1.7873019 L19.0655821,-0.302043896 L17.6755966,-0.165782214 Z M21.4678397,1.7873019 L21.4678397,6.55646078 C21.4678397,7.63141405 21.5282739,8.07047947 21.7095763,8.4944047 C21.98153,9.11515237 22.5405459,9.43309629 23.356407,9.43309629 C24.2629193,9.43309629 24.7463925,9.10001218 25.2298658,8.13104022 L25.2298658,9.25141405 L26.6500684,9.25141405 L26.6500684,1.7873019 L25.1089974,1.7873019 L25.1089974,5.3755262 C25.1089974,6.61702152 25.0636718,7.01066638 24.9125864,7.41945143 C24.7010669,7.94935797 24.3686791,8.19160096 23.8852058,8.19160096 C23.4621668,8.19160096 23.2355387,8.04019909 23.0995618,7.70711498 C23.0240192,7.51029255 23.0089106,7.26804956 23.0089106,6.5261804 L23.0089106,1.7873019 L21.4678397,1.7873019 Z M32.9503288,3.52842339 C32.5726154,2.22636732 31.7869714,1.60561966 30.5329627,1.60561966 C29.1127601,1.60561966 28.0551624,2.57459162 28.0551624,3.89178788 C28.0551624,4.48225517 28.2817905,5.01216171 28.689721,5.3755262 C29.052326,5.69347012 29.4300394,5.86001218 30.3969859,6.1779561 C31.4092579,6.49590003 31.7114287,6.75328321 31.7114287,7.29832994 C31.7114287,7.90393741 31.2581726,8.29758227 30.5480712,8.29758227 C29.7322102,8.29758227 29.278954,7.88879723 29.0976516,7.01066638 L27.7983173,7.26804956 C27.9342941,8.00991872 28.100488,8.37328321 28.4782015,8.73664769 C28.9465662,9.1908533 29.671776,9.43309629 30.4876371,9.43309629 C32.0891422,9.43309629 33.2222825,8.46412433 33.2222825,7.08636732 C33.2222825,6.45047947 32.9654374,5.87515237 32.4970727,5.52692807 C32.1495763,5.2544047 31.8020799,5.08786265 31.0164359,4.83047947 C30.2005749,4.5579561 30.0948151,4.52767573 29.8832956,4.37627386 C29.6566675,4.22487199 29.5206906,3.96748881 29.5206906,3.66468508 C29.5206906,3.11963835 29.9135126,2.74113367 30.4725286,2.74113367 C31.1070872,2.74113367 31.4848006,3.07421779 31.7416458,3.86150751 L32.9503288,3.52842339 Z M41.7586067,1.72674115 C41.5924128,2.25664769 41.5017616,2.49889068 41.290242,2.89253554 C40.8218773,1.99926452 40.308187,1.65104022 39.4621089,1.65104022 C37.8001697,1.65104022 36.8181147,3.13477853 36.8181147,5.61776919 C36.8181147,7.94935797 37.754844,9.38767573 39.295915,9.38767573 C40.0664504,9.38767573 40.5499236,9.08487199 41.0333969,8.29758227 L41.0333969,11.7798253 L42.5744678,11.7798253 L42.5744678,3.46786265 C42.5744678,2.66543274 42.5744678,2.24150751 42.6046849,1.72674115 L41.7586067,1.72674115 Z M41.0333969,5.8297318 C41.0333969,6.54132059 40.9578542,6.96524582 40.7765517,7.35889068 C40.5197066,7.9190776 40.1419931,8.22188134 39.718954,8.22188134 C38.8879844,8.22188134 38.4498368,7.29832994 38.4498368,5.49664769 C38.4498368,3.6344047 38.8426588,2.78655423 39.7340626,2.78655423 C40.504598,2.78655423 41.0333969,3.61926452 41.0333969,4.86075984 L41.0333969,5.8297318 Z M44.3723838,1.7873019 L44.3723838,6.55646078 C44.3723838,7.63141405 44.432818,8.07047947 44.6141205,8.4944047 C44.8860741,9.11515237 45.4450901,9.43309629 46.2609511,9.43309629 C47.1674634,9.43309629 47.6509367,9.10001218 48.1344099,8.13104022 L48.1344099,9.25141405 L49.5546125,9.25141405 L49.5546125,1.7873019 L48.0135416,1.7873019 L48.0135416,5.3755262 C48.0135416,6.61702152 47.968216,7.01066638 47.8171306,7.41945143 C47.605611,7.94935797 47.2732232,8.19160096 46.78975,8.19160096 C46.3667109,8.19160096 46.1400828,8.04019909 46.004106,7.70711498 C45.9285633,7.51029255 45.9134548,7.26804956 45.9134548,6.5261804 L45.9134548,1.7873019 L44.3723838,1.7873019 Z M53.9663057,1.60561966 C52.0021957,1.60561966 51.0050322,2.9379561 51.0050322,5.54206825 C51.0050322,8.07047947 52.0173042,9.43309629 53.9209801,9.43309629 C55.854873,9.43309629 56.8671451,8.10075984 56.8671451,5.52692807 C56.8671451,2.96823648 55.854873,1.60561966 53.9663057,1.60561966 Z M53.9511972,2.77141405 C54.8274924,2.77141405 55.2354229,3.64954489 55.2354229,5.51178788 C55.2354229,7.40431124 54.8274924,8.2673019 53.9360886,8.2673019 C53.0446849,8.2673019 52.6367543,7.41945143 52.6367543,5.51178788 C52.6367543,3.61926452 53.0446849,2.77141405 53.9511972,2.77141405 Z" id="status-quo-" fill="#000000"></path>
                    <path d="M18.9354397,16.787111 C19.1318507,16.1512232 19.2829361,15.8635596 19.5851068,15.5758961 C19.9023861,15.2579521 20.3858594,15.0762699 20.8844411,15.0762699 C21.9269303,15.0762699 22.591706,15.8029989 22.591706,16.9687932 C22.591706,17.5441204 22.4104035,18.0134661 22.0629071,18.3465503 C21.7003022,18.6947746 21.3981314,18.7704755 20.4160764,18.7704755 L19.7664093,18.7704755 L19.7664093,19.6788867 L20.4160764,19.6788867 C21.247046,19.6788867 21.7456278,19.784868 22.0931242,20.027111 C22.591706,20.3601951 22.8485511,20.920382 22.8485511,21.647111 C22.8485511,22.9188867 22.0780157,23.751597 20.8693326,23.751597 C20.2952081,23.751597 19.7059751,23.509354 19.3131531,23.1157091 C19.0109824,22.7977652 18.859897,22.4949615 18.663486,21.8439334 L17.6663225,22.1921577 C17.8174078,22.8886063 17.9684932,23.2216904 18.2857725,23.6001951 C18.859897,24.2966437 19.7815178,24.6751484 20.8844411,24.6751484 C22.8636597,24.6751484 24.1781025,23.4790736 24.1781025,21.6773914 C24.1781025,20.3299147 23.5133268,19.4820643 22.198884,19.1489802 C23.407567,18.5887932 23.8306061,18.0134661 23.8306061,16.8930923 C23.8306061,15.2125316 22.7276828,14.1527185 20.9750924,14.1527185 C20.0685801,14.1527185 19.3282617,14.4252418 18.7843543,14.9551484 C18.3764238,15.3487932 18.1951213,15.7272979 17.9836018,16.4994475 L18.9354397,16.787111 Z M26.157321,22.8280456 L26.157321,24.4631858 L27.532198,24.4631858 L27.532198,22.8280456 L26.157321,22.8280456 Z M30.0251068,14.3646811 L29.7380446,19.8302886 L30.5992313,20.0422512 C31.0524874,19.0732792 31.6266119,18.6796344 32.5482327,18.6796344 C33.7871329,18.6796344 34.4368,19.4972045 34.4368,21.0566437 C34.4368,22.7220643 33.7266987,23.6456157 32.442473,23.6456157 C31.3697667,23.6456157 30.8560764,23.1914101 30.4330374,21.889354 L29.3754397,22.2829989 C29.5869592,23.0854288 29.8135873,23.4790736 30.2668434,23.9029989 C30.8107508,24.402625 31.5510692,24.6751484 32.3971473,24.6751484 C34.3763659,24.6751484 35.6303746,23.267111 35.6303746,21.0415035 C35.6303746,18.9370175 34.5576683,17.6501017 32.8050779,17.6501017 C31.9136741,17.6501017 31.4453094,17.8772045 30.8258594,18.6342138 L30.9769447,15.409354 L35.026033,15.409354 L35.1317928,14.3646811 L30.0251068,14.3646811 Z M40.1780446,14.3646811 L40.1780446,24.4631858 L41.2356423,24.4631858 L41.2356423,15.6970175 L43.7738767,24.4631858 L44.6652805,24.4631858 L47.2639491,15.7121577 L47.2639491,24.4631858 L48.412198,24.4631858 L48.412198,14.3646811 L46.6898246,14.3646811 L44.3177841,22.4949615 L41.9457436,14.3646811 L40.1780446,14.3646811 Z M50.5425019,14.3646811 L50.5425019,24.4631858 L53.35269,24.4631858 C54.3800706,24.4631858 54.9390866,24.3420643 55.5283196,23.9786998 C56.3139636,23.4790736 56.7067856,22.7220643 56.7067856,21.647111 C56.7067856,20.8446811 56.4650489,20.1936531 55.9815757,19.7091671 C55.6945135,19.4063633 55.4074513,19.2701017 54.8182183,19.1035596 C55.8758159,18.6796344 56.3592892,17.998326 56.3592892,16.8628119 C56.3592892,15.9089802 55.9362501,15.0611297 55.2865829,14.6977652 C54.8031097,14.440382 54.3951792,14.3646811 53.2771473,14.3646811 L50.5425019,14.3646811 Z M51.7662935,18.649354 L51.7662935,15.3790736 L53.2771473,15.3790736 C54.531156,15.3790736 55.090172,15.8786998 55.090172,16.9990736 C55.090172,18.164868 54.5160475,18.649354 53.1109534,18.649354 L51.7662935,18.649354 Z M51.7662935,23.4487932 L51.7662935,19.6637465 L53.0807364,19.6637465 C53.941923,19.6637465 54.3196365,19.7545876 54.727567,20.0422512 C55.1959317,20.3753353 55.4376683,20.920382 55.4376683,21.6016904 C55.4376683,22.782625 54.6822414,23.4487932 53.322473,23.4487932 L51.7662935,23.4487932 Z" id="3.5-MB" fill="#7F7F7F"></path>
                </g>
                <path d="M39.1259475,347.950289 C38.5669316,348.707298 37.7812876,349.403747 36.9352095,349.873092 L36.9352095,351.432532 C37.7208535,350.993466 38.2496523,350.569541 38.718017,349.994214 L38.718017,356.913279 L36.9805351,356.913279 L36.9805351,358.154775 L41.9965698,358.154775 L41.9965698,356.913279 L40.3497391,356.913279 L40.3497391,347.950289 L39.1259475,347.950289 Z M42.9332992,350.690662 L44.8520836,354.278887 L42.6915626,358.154775 L44.1419823,358.154775 L45.5470763,355.520382 L46.8917362,358.154775 L48.6141096,358.154775 L46.408263,354.066924 L48.2817218,350.690662 L46.8615192,350.690662 L45.7132702,352.855709 L44.640564,350.690662 L42.9332992,350.690662 Z M56.5763093,352.431784 C56.1985959,351.129728 55.4129519,350.50898 54.1589432,350.50898 C52.7387406,350.50898 51.6811429,351.477952 51.6811429,352.795148 C51.6811429,353.385616 51.907771,353.915522 52.3157015,354.278887 C52.6783064,354.596831 53.0560199,354.763373 54.0229663,355.081317 C55.0352384,355.399261 55.3374092,355.656644 55.3374092,356.20169 C55.3374092,356.807298 54.884153,357.200943 54.1740517,357.200943 C53.3581907,357.200943 52.9049345,356.792158 52.723632,355.914027 L51.4242977,356.17141 C51.5602746,356.913279 51.7264685,357.276644 52.104182,357.640008 C52.5725467,358.094214 53.2977565,358.336457 54.1136176,358.336457 C55.7151226,358.336457 56.848263,357.367485 56.848263,355.989728 C56.848263,355.35384 56.5914179,354.778513 56.1230532,354.430289 C55.7755568,354.157765 55.4280604,353.991223 54.6424164,353.73384 C53.8265553,353.461317 53.7207956,353.431036 53.509276,353.279634 C53.282648,353.128233 53.1466711,352.870849 53.1466711,352.568046 C53.1466711,352.022999 53.5394931,351.644494 54.098509,351.644494 C54.7330676,351.644494 55.1107811,351.977578 55.3676263,352.764868 L56.5763093,352.431784 Z M63.1787406,353.203933 C63.0427637,352.189541 62.8614613,351.735335 62.4233137,351.235709 C62.0002746,350.751223 61.365716,350.50898 60.5649634,350.50898 C58.6763962,350.50898 57.6490155,351.886737 57.6490155,354.430289 C57.6490155,356.97384 58.6310705,358.336457 60.4592037,358.336457 C61.3203904,358.336457 62.0758173,358.033653 62.4837478,357.518887 C62.8765698,357.049541 63.0427637,356.580195 63.1787406,355.580943 L61.6981038,355.444681 C61.5772355,356.640756 61.2750647,357.064681 60.580072,357.064681 C59.6735597,357.064681 59.2656291,356.277391 59.2656291,354.56655 C59.2656291,352.537765 59.6282341,351.735335 60.580072,351.735335 C61.2750647,351.735335 61.5470184,352.12898 61.6981038,353.355335 L63.1787406,353.203933 Z M64.1910126,350.690662 L64.1910126,358.154775 L65.7320836,358.154775 L65.7320836,354.354588 C65.7320836,352.90113 66.306208,352.12898 67.3789142,352.12898 C67.4695655,352.12898 67.5299996,352.14412 67.681085,352.159261 L67.681085,350.554401 C67.5602167,350.52412 67.4997825,350.52412 67.4091313,350.52412 C66.5781617,350.52412 65.9738202,351.114588 65.5507811,352.356083 L65.5507811,350.690662 L64.1910126,350.690662 Z M73.7396089,354.657391 C73.7093918,353.219074 73.603632,352.598326 73.1957015,351.811036 C72.7726624,350.993466 71.9114757,350.50898 70.9294208,350.50898 C69.0710705,350.50898 67.9530387,352.038139 67.9530387,354.53627 C67.9530387,356.9587 69.0257449,358.336457 70.9143122,358.336457 C71.7603904,358.336457 72.394949,358.079074 72.9086393,357.549167 C73.3014613,357.125242 73.4978723,356.746737 73.6791747,355.974588 L72.2740807,355.777765 C72.0474526,356.777018 71.6697391,357.170662 70.9596378,357.170662 C70.4761646,357.170662 70.0833426,356.94356 69.841606,356.519634 C69.5998694,356.12599 69.5243267,355.656644 69.5243267,354.657391 L73.7396089,354.657391 Z M69.5545438,353.612718 C69.645195,352.325803 70.0984511,351.644494 70.8840951,351.644494 C71.7150647,351.644494 72.1683209,352.325803 72.1683209,353.612718 L69.5545438,353.612718 Z M80.4326914,354.657391 C80.4024743,353.219074 80.2967145,352.598326 79.888784,351.811036 C79.4657449,350.993466 78.6045582,350.50898 77.6225032,350.50898 C75.764153,350.50898 74.6461212,352.038139 74.6461212,354.53627 C74.6461212,356.9587 75.7188274,358.336457 77.6073947,358.336457 C78.4534729,358.336457 79.0880315,358.079074 79.6017218,357.549167 C79.9945438,357.125242 80.1909548,356.746737 80.3722572,355.974588 L78.9671632,355.777765 C78.7405351,356.777018 78.3628216,357.170662 77.6527203,357.170662 C77.1692471,357.170662 76.7764251,356.94356 76.5346885,356.519634 C76.2929519,356.12599 76.2174092,355.656644 76.2174092,354.657391 L80.4326914,354.657391 Z M76.2476263,353.612718 C76.3382775,352.325803 76.7915336,351.644494 77.5771776,351.644494 C78.4081472,351.644494 78.8614034,352.325803 78.8614034,353.612718 L76.2476263,353.612718 Z M81.7018086,350.690662 L81.7018086,358.154775 L83.2428795,358.154775 L83.2428795,353.976083 C83.2428795,352.371223 83.5903759,351.750475 84.4515626,351.750475 C84.8141675,351.750475 85.0710126,351.886737 85.191881,352.14412 C85.3127493,352.371223 85.3429663,352.674027 85.3429663,353.431036 L85.3429663,358.154775 L86.8840373,358.154775 L86.8840373,353.340195 C86.8840373,352.295522 86.8387116,351.901877 86.6876263,351.553653 C86.4156726,350.872345 85.7962225,350.50898 84.9652529,350.50898 C84.0587406,350.50898 83.5299417,350.887485 83.1220112,351.841317 L83.1220112,350.690662 L81.7018086,350.690662 Z" id="1x-screen" fill="#000000"></path>
                <path d="M38.2324103,284.336238 C38.3986042,282.973621 38.9425116,282.292313 39.8490239,282.292313 C40.7102106,282.292313 41.2692265,282.958481 41.2692265,283.988014 C41.2692265,285.380911 40.1814117,286.773808 36.736665,289.741285 L36.736665,291.194743 L42.9915999,291.194743 L43.0671426,289.726145 L38.504364,289.726145 C39.4410933,289.044836 40.1814117,288.424089 40.8764045,287.75792 C42.4023669,286.319603 42.9915999,285.229509 42.9915999,283.882032 C42.9915999,282.08035 41.7980253,280.914556 39.9698922,280.914556 C39.0180543,280.914556 38.2626274,281.2325 37.6885029,281.853247 C37.1748126,282.428575 36.9481845,282.928201 36.736665,284.018294 L38.2324103,284.336238 Z M43.9434378,283.730631 L45.8622221,287.318855 L43.7017012,291.194743 L45.1521208,291.194743 L46.5572149,288.56035 L47.9018748,291.194743 L49.6242482,291.194743 L47.4184016,287.106892 L49.2918604,283.730631 L47.8716577,283.730631 L46.7234088,285.895677 L45.6507026,283.730631 L43.9434378,283.730631 Z M57.5864479,285.471752 C57.2087344,284.169696 56.4230905,283.548948 55.1690818,283.548948 C53.7488792,283.548948 52.6912815,284.51792 52.6912815,285.835117 C52.6912815,286.425584 52.9179096,286.95549 53.3258401,287.318855 C53.688445,287.636799 54.0661585,287.803341 55.0331049,288.121285 C56.045377,288.439229 56.3475478,288.696612 56.3475478,289.241659 C56.3475478,289.847266 55.8942916,290.240911 55.1841903,290.240911 C54.3683292,290.240911 53.9150731,289.832126 53.7337706,288.953995 L52.4344363,289.211378 C52.5704132,289.953247 52.7366071,290.316612 53.1143206,290.679976 C53.5826852,291.134182 54.3078951,291.376425 55.1237562,291.376425 C56.7252612,291.376425 57.8584016,290.407453 57.8584016,289.029696 C57.8584016,288.393808 57.6015564,287.818481 57.1331918,287.470257 C56.7856954,287.197733 56.438199,287.031191 55.652555,286.773808 C54.8366939,286.501285 54.7309342,286.471004 54.5194146,286.319603 C54.2927865,286.168201 54.1568097,285.910818 54.1568097,285.608014 C54.1568097,285.062967 54.5496317,284.684462 55.1086476,284.684462 C55.7432062,284.684462 56.1209197,285.017546 56.3777648,285.804836 L57.5864479,285.471752 Z M64.1888792,286.243902 C64.0529023,285.229509 63.8715999,284.775303 63.4334522,284.275677 C63.0104132,283.791191 62.3758546,283.548948 61.575102,283.548948 C59.6865347,283.548948 58.6591541,284.926705 58.6591541,287.470257 C58.6591541,290.013808 59.6412091,291.376425 61.4693423,291.376425 C62.3305289,291.376425 63.0859559,291.073621 63.4938864,290.558855 C63.8867084,290.089509 64.0529023,289.620163 64.1888792,288.620911 L62.7082424,288.484649 C62.5873741,289.680724 62.2852033,290.104649 61.5902106,290.104649 C60.6836983,290.104649 60.2757677,289.31736 60.2757677,287.606518 C60.2757677,285.577733 60.6383727,284.775303 61.5902106,284.775303 C62.2852033,284.775303 62.557157,285.168948 62.7082424,286.395303 L64.1888792,286.243902 Z M65.2011512,283.730631 L65.2011512,291.194743 L66.7422221,291.194743 L66.7422221,287.394556 C66.7422221,285.941098 67.3163466,285.168948 68.3890528,285.168948 C68.4797041,285.168948 68.5401382,285.184089 68.6912236,285.199229 L68.6912236,283.594369 C68.5703553,283.564089 68.5099211,283.564089 68.4192699,283.564089 C67.5883003,283.564089 66.9839588,284.154556 66.5609197,285.396051 L66.5609197,283.730631 L65.2011512,283.730631 Z M74.7497475,287.69736 C74.7195304,286.259042 74.6137706,285.638294 74.2058401,284.851004 C73.782801,284.033434 72.9216143,283.548948 71.9395593,283.548948 C70.0812091,283.548948 68.9631773,285.078107 68.9631773,287.576238 C68.9631773,289.998668 70.0358835,291.376425 71.9244508,291.376425 C72.7705289,291.376425 73.4050876,291.119042 73.9187779,290.589135 C74.3115999,290.16521 74.5080109,289.786705 74.6893133,289.014556 L73.2842193,288.817733 C73.0575912,289.816986 72.6798777,290.210631 71.9697764,290.210631 C71.4863032,290.210631 71.0934812,289.983528 70.8517446,289.559603 C70.610008,289.165958 70.5344653,288.696612 70.5344653,287.69736 L74.7497475,287.69736 Z M70.5646824,286.652687 C70.6553336,285.365771 71.1085897,284.684462 71.8942337,284.684462 C72.7252033,284.684462 73.1784595,285.365771 73.1784595,286.652687 L70.5646824,286.652687 Z M81.44283,287.69736 C81.4126129,286.259042 81.3068531,285.638294 80.8989226,284.851004 C80.4758835,284.033434 79.6146968,283.548948 78.6326418,283.548948 C76.7742916,283.548948 75.6562598,285.078107 75.6562598,287.576238 C75.6562598,289.998668 76.728966,291.376425 78.6175333,291.376425 C79.4636114,291.376425 80.09817,291.119042 80.6118604,290.589135 C81.0046824,290.16521 81.2010933,289.786705 81.3823958,289.014556 L79.9773017,288.817733 C79.7506737,289.816986 79.3729602,290.210631 78.6628589,290.210631 C78.1793857,290.210631 77.7865637,289.983528 77.5448271,289.559603 C77.3030905,289.165958 77.2275478,288.696612 77.2275478,287.69736 L81.44283,287.69736 Z M77.2577648,286.652687 C77.3484161,285.365771 77.8016722,284.684462 78.5873162,284.684462 C79.4182858,284.684462 79.871542,285.365771 79.871542,286.652687 L77.2577648,286.652687 Z M82.7119472,283.730631 L82.7119472,291.194743 L84.2530181,291.194743 L84.2530181,287.016051 C84.2530181,285.411191 84.6005145,284.790444 85.4617012,284.790444 C85.8243061,284.790444 86.0811512,284.926705 86.2020195,285.184089 C86.3228878,285.411191 86.3531049,285.713995 86.3531049,286.471004 L86.3531049,291.194743 L87.8941758,291.194743 L87.8941758,286.380163 C87.8941758,285.33549 87.8488502,284.941846 87.6977648,284.593621 C87.4258111,283.912313 86.8063611,283.548948 85.9753915,283.548948 C85.0688792,283.548948 84.5400803,283.927453 84.1321498,284.881285 L84.1321498,283.730631 L82.7119472,283.730631 Z" id="2x-screen" fill="#000000"></path>
                <path d="M63.9337321,15.2145876 L60.141489,22.2547746 L60.141489,23.0723447 L64.3114456,23.0723447 L64.3114456,25.5099147 L65.4596945,25.5099147 L65.4596945,23.0723447 L66.8194629,23.0723447 L66.8194629,22.1639334 L65.4596945,22.1639334 L65.4596945,15.2145876 L63.9337321,15.2145876 Z M64.3114456,22.1639334 L61.2595208,22.1639334 L64.3114456,16.1532792 L64.3114456,22.1639334 Z M71.1556134,15.4114101 L71.1556134,25.5099147 L72.2132111,25.5099147 L72.2132111,16.7437465 L74.7514456,25.5099147 L75.6428493,25.5099147 L78.2415179,16.7588867 L78.2415179,25.5099147 L79.3897668,25.5099147 L79.3897668,15.4114101 L77.6673935,15.4114101 L75.2953529,23.5416904 L72.9233124,15.4114101 L71.1556134,15.4114101 Z M81.5200707,15.4114101 L81.5200707,25.5099147 L84.3302589,25.5099147 C85.3576395,25.5099147 85.9166554,25.3887932 86.5058884,25.0254288 C87.2915324,24.5258026 87.6843544,23.7687932 87.6843544,22.69384 C87.6843544,21.8914101 87.4426178,21.240382 86.9591445,20.7558961 C86.6720823,20.4530923 86.3850201,20.3168306 85.7957871,20.1502886 C86.8533848,19.7263633 87.336858,19.0450549 87.336858,17.9095409 C87.336858,16.9557091 86.9138189,16.1078587 86.2641518,15.7444942 C85.7806785,15.487111 85.372748,15.4114101 84.2547162,15.4114101 L81.5200707,15.4114101 Z M82.7438623,19.696083 L82.7438623,16.4258026 L84.2547162,16.4258026 C85.5087249,16.4258026 86.0677408,16.9254288 86.0677408,18.0458026 C86.0677408,19.211597 85.4936163,19.696083 84.0885223,19.696083 L82.7438623,19.696083 Z M82.7438623,24.4955222 L82.7438623,20.7104755 L84.0583052,20.7104755 C84.9194919,20.7104755 85.2972053,20.8013166 85.7051359,21.0889802 C86.1735005,21.4220643 86.4152372,21.967111 86.4152372,22.6484194 C86.4152372,23.829354 85.6598102,24.4955222 84.3000418,24.4955222 L82.7438623,24.4955222 Z" id="4-MB" fill="#7F7F7F"></path>
                <path d="M63.510693,379.267851 C62.7099405,379.267851 61.9847306,379.555514 61.4861489,380.085421 C60.6702878,380.963552 60.2623573,382.41701 60.2623573,384.521496 C60.2623573,386.641122 60.6551793,388.07944 61.4861489,388.972711 C61.9696221,389.487477 62.7099405,389.790281 63.4804759,389.790281 C64.2510114,389.790281 64.9913298,389.487477 65.474803,388.972711 C66.3057726,388.09458 66.6985946,386.641122 66.6985946,384.536636 C66.6985946,382.41701 66.2906641,380.963552 65.474803,380.085421 C64.9913298,379.585795 64.2510114,379.267851 63.510693,379.267851 Z M63.4955845,380.191402 C63.9941662,380.191402 64.4172053,380.433645 64.7647017,380.948411 C65.2330664,381.62972 65.474803,382.825795 65.474803,384.521496 C65.474803,387.352711 64.7798102,388.866729 63.4804759,388.866729 C62.1811416,388.866729 61.4861489,387.352711 61.4861489,384.506355 C61.4861489,381.690281 62.1811416,380.191402 63.4955845,380.191402 Z M71.1556134,379.479813 L71.1556134,389.578318 L72.2132111,389.578318 L72.2132111,380.81215 L74.7514456,389.578318 L75.6428493,389.578318 L78.2415179,380.82729 L78.2415179,389.578318 L79.3897668,389.578318 L79.3897668,379.479813 L77.6673935,379.479813 L75.2953529,387.610094 L72.9233124,379.479813 L71.1556134,379.479813 Z M81.5200707,379.479813 L81.5200707,389.578318 L84.3302589,389.578318 C85.3576395,389.578318 85.9166554,389.457197 86.5058884,389.093832 C87.2915324,388.594206 87.6843544,387.837197 87.6843544,386.762243 C87.6843544,385.959813 87.4426178,385.308785 86.9591445,384.824299 C86.6720823,384.521496 86.3850201,384.385234 85.7957871,384.218692 C86.8533848,383.794767 87.336858,383.113458 87.336858,381.977944 C87.336858,381.024112 86.9138189,380.176262 86.2641518,379.812897 C85.7806785,379.555514 85.372748,379.479813 84.2547162,379.479813 L81.5200707,379.479813 Z M82.7438623,383.764486 L82.7438623,380.494206 L84.2547162,380.494206 C85.5087249,380.494206 86.0677408,380.993832 86.0677408,382.114206 C86.0677408,383.28 85.4936163,383.764486 84.0885223,383.764486 L82.7438623,383.764486 Z M82.7438623,388.563925 L82.7438623,384.778879 L84.0583052,384.778879 C84.9194919,384.778879 85.2972053,384.86972 85.7051359,385.157383 C86.1735005,385.490468 86.4152372,386.035514 86.4152372,386.716823 C86.4152372,387.897757 85.6598102,388.563925 84.3000418,388.563925 L82.7438623,388.563925 Z" id="0-MB" fill="#7F7F7F"></path>
                <path d="M0,0.15 L0,10.155 L2.055,10.155 L2.055,0.15 L0,0.15 Z M6.315,2.61 C4.26,2.61 3.27,3.87 3.27,6.48 C3.27,9.015 4.275,10.305 6.285,10.305 C8.28,10.305 9.285,9.015 9.285,6.465 C9.285,3.915 8.28,2.61 6.315,2.61 Z M6.3,4.05 C6.93,4.05 7.155,4.68 7.155,6.465 C7.155,8.265 6.93,8.865 6.285,8.865 C5.625,8.865 5.4,8.265 5.4,6.45 C5.4,4.65 5.625,4.05 6.3,4.05 Z M12.465,5.1 C12.54,4.29 12.78,3.975 13.32,3.975 C13.905,3.975 14.07,4.26 14.07,5.28 L14.07,5.565 C13.095,5.625 12.315,5.775 11.67,6.03 C10.77,6.375 10.26,7.2 10.26,8.28 C10.26,9.54 11.01,10.305 12.21,10.305 C13.14,10.305 13.695,9.96 14.235,9.03 L14.235,9.255 C14.235,9.69 14.25,9.84 14.34,10.155 L16.245,10.155 C16.14,9.84 16.125,9.54 16.125,8.505 L16.125,5.565 C16.125,4.35 16.02,3.825 15.705,3.45 C15.27,2.91 14.46,2.61 13.5,2.61 C11.79,2.61 10.74,3.42 10.515,4.92 L12.465,5.1 Z M14.07,6.975 C14.07,7.74 14.01,8.115 13.8,8.445 C13.605,8.775 13.365,8.94 13.08,8.94 C12.645,8.94 12.39,8.61 12.39,8.01 C12.39,7.11 12.81,6.765 14.07,6.615 L14.07,6.975 Z M21.255,0.15 L21.255,3.45 C20.895,2.88 20.49,2.655 19.77,2.655 C18.225,2.655 17.325,4.05 17.325,6.465 C17.325,8.88 18.18,10.26 19.68,10.26 C20.55,10.26 20.985,9.915 21.375,8.925 L21.375,10.155 L23.28,10.155 L23.28,0.15 L21.255,0.15 Z M21.255,7.17 C21.255,8.325 20.985,8.82 20.34,8.82 C19.905,8.82 19.65,8.52 19.545,7.92 C19.47,7.515 19.455,7.23 19.455,6.105 C19.455,4.62 19.71,4.02 20.355,4.02 C20.67,4.02 20.955,4.215 21.075,4.485 C21.225,4.89 21.255,5.1 21.255,5.865 L21.255,7.17 Z M30.495,6.795 C30.48,5.355 30.375,4.74 29.955,3.96 C29.505,3.12 28.59,2.61 27.555,2.61 C25.62,2.61 24.48,4.08 24.48,6.555 C24.48,8.94 25.605,10.305 27.555,10.305 C29.19,10.305 30.12,9.48 30.495,7.725 L28.65,7.605 C28.545,8.505 28.23,8.865 27.6,8.865 C26.895,8.865 26.61,8.37 26.61,7.185 L26.61,6.795 L30.495,6.795 Z M28.545,5.61 L26.625,5.61 C26.655,4.455 26.94,3.975 27.585,3.975 C28.2,3.975 28.545,4.485 28.545,5.4 L28.545,5.61 Z M35.31,0.15 L35.31,3.45 C34.95,2.88 34.545,2.655 33.825,2.655 C32.28,2.655 31.38,4.05 31.38,6.465 C31.38,8.88 32.235,10.26 33.735,10.26 C34.605,10.26 35.04,9.915 35.43,8.925 L35.43,10.155 L37.335,10.155 L37.335,0.15 L35.31,0.15 Z M35.31,7.17 C35.31,8.325 35.04,8.82 34.395,8.82 C33.96,8.82 33.705,8.52 33.6,7.92 C33.525,7.515 33.51,7.23 33.51,6.105 C33.51,4.62 33.765,4.02 34.41,4.02 C34.725,4.02 35.01,4.215 35.13,4.485 C35.28,4.89 35.31,5.1 35.31,5.865 L35.31,7.17 Z M41.655,0.15 L41.655,10.155 L42.87,10.155 C43.02,9.705 43.095,9.51 43.26,9.195 C43.635,9.99 44.13,10.305 44.97,10.305 C46.665,10.305 47.61,8.91 47.61,6.405 C47.61,4.065 46.71,2.655 45.225,2.655 C44.58,2.655 44.16,2.865 43.68,3.45 L43.68,0.15 L41.655,0.15 Z M43.68,5.37 C43.68,4.89 43.695,4.74 43.8,4.515 C43.95,4.215 44.235,4.02 44.58,4.02 C45.24,4.02 45.48,4.68 45.48,6.465 C45.48,8.235 45.225,8.88 44.55,8.88 C44.22,8.88 43.965,8.715 43.83,8.4 C43.71,8.1 43.68,7.905 43.68,7.08 L43.68,5.37 Z M47.85,2.76 L49.98,10.02 C49.71,10.935 49.53,11.085 48.75,11.085 C48.54,11.085 48.42,11.07 48.15,11.04 L48.15,12.66 C48.525,12.75 48.72,12.78 49.035,12.78 C49.68,12.78 50.175,12.6 50.535,12.24 C50.895,11.865 51.06,11.52 51.42,10.275 L53.655,2.76 L51.87,2.76 L50.91,7.275 L49.905,2.76 L47.85,2.76 Z M62.025,6.51 C61.86,7.89 61.41,8.52 60.615,8.52 C59.55,8.52 59.115,7.59 59.115,5.325 C59.115,2.82 59.55,1.785 60.615,1.785 C61.065,1.785 61.425,1.995 61.665,2.415 C61.875,2.76 61.95,3.12 62.01,4.02 L64.02,3.87 C63.945,2.775 63.78,2.16 63.435,1.545 C62.835,0.525 61.89,0 60.6,0 C58.17,0 56.805,1.86 56.805,5.16 C56.805,8.43 58.17,10.305 60.57,10.305 C62.565,10.305 63.885,8.91 64.065,6.645 L62.025,6.51 Z M65.16,0.15 L65.16,10.155 L67.215,10.155 L67.215,5.46 C67.215,4.545 67.455,4.215 68.13,4.215 C68.715,4.215 68.85,4.44 68.85,5.415 L68.85,10.155 L70.905,10.155 L70.905,5.415 C70.905,4.335 70.86,3.945 70.695,3.555 C70.41,2.925 69.855,2.61 69.045,2.61 C68.175,2.61 67.665,2.865 67.215,3.54 L67.215,0.15 L65.16,0.15 Z M72.315,2.76 L72.315,10.155 L74.37,10.155 L74.37,6.96 C74.37,5.415 74.85,4.68 75.885,4.68 C75.945,4.68 76.095,4.695 76.23,4.71 L76.23,2.7 C76.065,2.67 75.99,2.655 75.87,2.655 C75.03,2.655 74.505,3.225 74.13,4.545 L74.13,2.76 L72.315,2.76 Z M79.65,2.61 C77.595,2.61 76.605,3.87 76.605,6.48 C76.605,9.015 77.61,10.305 79.62,10.305 C81.615,10.305 82.62,9.015 82.62,6.465 C82.62,3.915 81.615,2.61 79.65,2.61 Z M79.635,4.05 C80.265,4.05 80.49,4.68 80.49,6.465 C80.49,8.265 80.265,8.865 79.62,8.865 C78.96,8.865 78.735,8.265 78.735,6.45 C78.735,4.65 78.96,4.05 79.635,4.05 Z M83.82,2.76 L83.82,10.155 L85.875,10.155 L85.875,5.85 C85.875,4.56 86.04,4.215 86.685,4.215 C86.985,4.215 87.165,4.305 87.255,4.515 C87.33,4.665 87.33,4.68 87.345,5.475 L87.345,10.155 L89.4,10.155 L89.4,5.85 C89.4,4.515 89.55,4.215 90.18,4.215 C90.72,4.215 90.825,4.425 90.825,5.535 L90.825,10.155 L92.88,10.155 L92.88,5.325 C92.88,4.245 92.82,3.825 92.655,3.465 C92.37,2.91 91.8,2.61 90.99,2.61 C90.075,2.61 89.535,2.955 89.16,3.765 C88.92,2.925 88.485,2.61 87.57,2.61 C86.685,2.61 86.145,2.955 85.785,3.765 L85.785,2.76 L83.82,2.76 Z M99.99,6.795 C99.975,5.355 99.87,4.74 99.45,3.96 C99,3.12 98.085,2.61 97.05,2.61 C95.115,2.61 93.975,4.08 93.975,6.555 C93.975,8.94 95.1,10.305 97.05,10.305 C98.685,10.305 99.615,9.48 99.99,7.725 L98.145,7.605 C98.04,8.505 97.725,8.865 97.095,8.865 C96.39,8.865 96.105,8.37 96.105,7.185 L96.105,6.795 L99.99,6.795 Z M98.04,5.61 L96.12,5.61 C96.15,4.455 96.435,3.975 97.08,3.975 C97.695,3.975 98.04,4.485 98.04,5.4 L98.04,5.61 Z" id="loaded-by-Chrome" fill="#BA3925"></path>
            </g>
            <g id="x-axis-labels" transform="translate(97.997956, 396.557566)" sketch:type="MSShapeGroup">
                <path d="M513.221591,19.0507738 L515.321678,26.5148859 L516.968508,26.5148859 L519.008161,19.0507738 L517.285788,19.0507738 L516.243299,23.4565682 L515.215918,19.0507738 L513.221591,19.0507738 Z M519.552068,19.0507738 L519.552068,26.5148859 L521.621938,26.5148859 L521.621938,19.0507738 L519.552068,19.0507738 Z M521.652155,18.4300261 L521.652155,16.3709607 L519.53696,16.3709607 L519.53696,18.4300261 L521.652155,18.4300261 Z M528.904254,23.123484 C528.889145,21.6700261 528.783385,21.0492784 528.360346,20.2619887 C527.90709,19.4141382 526.985469,18.8993719 525.94298,18.8993719 C523.993979,18.8993719 522.84573,20.3831102 522.84573,22.8812411 C522.84573,25.2885308 523.97887,26.6662878 525.94298,26.6662878 C527.589811,26.6662878 528.52654,25.8335775 528.904254,24.0621756 L527.045903,23.9410541 C526.940144,24.8494654 526.622864,25.2128298 525.988306,25.2128298 C525.278204,25.2128298 524.991142,24.7132037 524.991142,23.5171289 L524.991142,23.123484 L528.904254,23.123484 Z M526.940144,21.9274093 L525.006251,21.9274093 C525.036468,20.7616149 525.32353,20.2771289 525.973197,20.2771289 C526.592647,20.2771289 526.940144,20.7918953 526.940144,21.7154467 L526.940144,21.9274093 Z M529.221533,19.0507738 L531.094992,26.5148859 L532.787148,26.5148859 L533.723877,21.4429233 L534.675715,26.5148859 L536.428306,26.5148859 L538.286656,19.0507738 L536.654934,19.0507738 L535.65777,23.5928298 L534.977886,19.0507738 L532.953342,19.0507738 L532.122372,23.5928298 L531.246077,19.0507738 L529.221533,19.0507738 Z M538.86078,19.0507738 L538.86078,29.0432971 L540.900433,29.0432971 L540.900433,25.954699 C541.353689,26.439185 541.731403,26.6208672 542.335744,26.6208672 C543.952358,26.6208672 544.85887,25.2128298 544.85887,22.6844186 C544.85887,20.3376896 543.967466,18.9447925 542.471721,18.9447925 C541.716294,18.9447925 541.263038,19.2627364 540.779565,20.1711476 L540.779565,19.0507738 L538.86078,19.0507738 Z M540.900433,22.0485308 C540.900433,21.5186242 540.915542,21.3218018 540.975976,21.094699 C541.096844,20.5799326 541.383906,20.3225495 541.837163,20.3225495 C542.501938,20.3225495 542.713458,20.8978766 542.713458,22.6541382 C542.713458,24.6072224 542.501938,25.1674093 541.776728,25.1674093 C541.429232,25.1674093 541.157278,25.0311476 541.03641,24.7889046 C540.945759,24.5920822 540.900433,24.1984373 540.900433,23.4565682 L540.900433,22.0485308 Z M548.817307,18.8993719 C546.747437,18.8993719 545.750274,20.1711476 545.750274,22.8055401 C545.750274,25.3642317 546.762546,26.6662878 548.78709,26.6662878 C550.796526,26.6662878 551.808798,25.3642317 551.808798,22.7903999 C551.808798,20.2165682 550.796526,18.8993719 548.817307,18.8993719 Z M548.802199,20.3528298 C549.436757,20.3528298 549.663385,20.9887177 549.663385,22.7903999 C549.663385,24.6072224 549.436757,25.2128298 548.78709,25.2128298 C548.122314,25.2128298 547.895686,24.6072224 547.895686,22.7752597 C547.895686,20.9584373 548.122314,20.3528298 548.802199,20.3528298 Z M553.017481,19.0507738 L553.017481,26.5148859 L555.087351,26.5148859 L555.087351,23.2900261 C555.087351,21.7305868 555.570824,20.9887177 556.613313,20.9887177 C556.673747,20.9887177 556.824833,21.0038579 556.960809,21.0189981 L556.960809,18.990213 C556.794615,18.9599326 556.719073,18.9447925 556.598204,18.9447925 C555.752126,18.9447925 555.223328,19.5201196 554.845614,20.852456 L554.845614,19.0507738 L553.017481,19.0507738 Z M558.229927,16.8403065 L558.063733,19.0507738 L557.127003,19.0507738 L557.127003,20.6859139 L557.957973,20.6859139 L557.957973,23.6533906 C557.957973,25.0160074 558.003299,25.3490915 558.275252,25.8032971 C558.60764,26.363484 559.257307,26.6662878 560.194037,26.6662878 C560.57175,26.6662878 560.904138,26.6208672 561.463154,26.5148859 L561.463154,24.9251663 C561.206309,24.9403065 561.040115,24.9554467 560.873921,24.9554467 C560.46599,24.9554467 560.209145,24.8494654 560.088277,24.6375027 C559.997626,24.4406803 559.982517,24.3498392 559.982517,23.4262878 L559.982517,20.6859139 L561.342286,20.6859139 L561.342286,19.0507738 L559.982517,19.0507738 L559.982517,16.6889046 L558.229927,16.8403065 Z M564.228016,19.0507738 L566.101475,26.5148859 L567.793631,26.5148859 L568.730361,21.4429233 L569.682199,26.5148859 L571.434789,26.5148859 L573.293139,19.0507738 L571.661417,19.0507738 L570.664254,23.5928298 L569.984369,19.0507738 L567.959825,19.0507738 L567.128856,23.5928298 L566.252561,19.0507738 L564.228016,19.0507738 Z M573.852155,19.0507738 L573.852155,26.5148859 L575.922025,26.5148859 L575.922025,19.0507738 L573.852155,19.0507738 Z M575.952242,18.4300261 L575.952242,16.3709607 L573.837047,16.3709607 L573.837047,18.4300261 L575.952242,18.4300261 Z M581.104254,16.4163812 L581.104254,19.7472224 C580.741649,19.1718953 580.333718,18.9447925 579.608508,18.9447925 C578.052329,18.9447925 577.145817,20.3528298 577.145817,22.7903999 C577.145817,25.22797 578.007003,26.6208672 579.517857,26.6208672 C580.394152,26.6208672 580.8323,26.2726429 581.225122,25.2733906 L581.225122,26.5148859 L583.143906,26.5148859 L583.143906,16.4163812 L581.104254,16.4163812 Z M581.104254,23.5019887 C581.104254,24.6677831 580.8323,25.1674093 580.182633,25.1674093 C579.744485,25.1674093 579.48764,24.8646055 579.38188,24.2589981 C579.306338,23.850213 579.291229,23.5625495 579.291229,22.4270354 C579.291229,20.9281569 579.548074,20.3225495 580.197741,20.3225495 C580.515021,20.3225495 580.802083,20.5193719 580.922951,20.7918953 C581.074037,21.2006803 581.104254,21.4126429 581.104254,22.1847925 L581.104254,23.5019887 Z M585.243993,16.8403065 L585.077799,19.0507738 L584.14107,19.0507738 L584.14107,20.6859139 L584.97204,20.6859139 L584.97204,23.6533906 C584.97204,25.0160074 585.017365,25.3490915 585.289319,25.8032971 C585.621707,26.363484 586.271374,26.6662878 587.208103,26.6662878 C587.585817,26.6662878 587.918204,26.6208672 588.47722,26.5148859 L588.47722,24.9251663 C588.220375,24.9403065 588.054181,24.9554467 587.887987,24.9554467 C587.480057,24.9554467 587.223212,24.8494654 587.102343,24.6375027 C587.011692,24.4406803 586.996584,24.3498392 586.996584,23.4262878 L586.996584,20.6859139 L588.356352,20.6859139 L588.356352,19.0507738 L586.996584,19.0507738 L586.996584,16.6889046 L585.243993,16.8403065 Z M589.30819,16.4163812 L589.30819,26.5148859 L591.37806,26.5148859 L591.37806,21.7760074 C591.37806,20.852456 591.619796,20.5193719 592.299681,20.5193719 C592.888914,20.5193719 593.02489,20.7464747 593.02489,21.7305868 L593.02489,26.5148859 L595.09476,26.5148859 L595.09476,21.7305868 C595.09476,20.6404934 595.049435,20.2468485 594.883241,19.8532037 C594.596178,19.2173158 594.037163,18.8993719 593.221301,18.8993719 C592.345006,18.8993719 591.831316,19.1567551 591.37806,19.8380635 L591.37806,16.4163812 L589.30819,16.4163812 Z" id="viewport-width" fill="#BA3925"></path>
                <path d="M186.92079,2.2061804 C186.648836,1.4037505 186.437317,1.04038601 186.044495,0.661881338 C185.561022,0.20767573 184.866029,-0.0497074475 184.12571,-0.0497074475 C181.980298,-0.0497074475 180.650747,2.06991872 180.650747,5.50674115 C180.650747,8.64075984 181.874538,10.4727225 183.974625,10.4727225 C185.772541,10.4727225 187.011441,9.06468508 187.011441,7.00561966 C187.011441,5.03739536 185.832975,3.64449816 184.155928,3.64449816 C183.007679,3.64449816 182.282469,4.18954489 181.768778,5.41590003 C181.889647,2.28188134 182.58464,0.979825263 184.110602,0.979825263 C185.017114,0.979825263 185.485479,1.4037505 185.848084,2.56954489 L186.92079,2.2061804 Z M184.035059,4.67403087 C185.1682,4.67403087 185.832975,5.5673019 185.832975,7.08132059 C185.832975,8.59533928 185.183308,9.44318975 184.035059,9.44318975 C182.88681,9.44318975 182.025624,8.41365704 182.025624,7.03590003 C182.025624,5.64300283 182.856593,4.67403087 184.035059,4.67403087 Z M191.846174,-0.0345672606 L188.05393,7.00561966 L188.05393,7.82318975 L192.223887,7.82318975 L192.223887,10.2607598 L193.372136,10.2607598 L193.372136,7.82318975 L194.731904,7.82318975 L194.731904,6.91477853 L193.372136,6.91477853 L193.372136,-0.0345672606 L191.846174,-0.0345672606 Z M192.223887,6.91477853 L189.171962,6.91477853 L192.223887,0.904124328 L192.223887,6.91477853 Z M199.143598,-0.0497074475 C198.342845,-0.0497074475 197.617635,0.237956104 197.119053,0.767862646 C196.303192,1.64599349 195.895262,3.09945143 195.895262,5.20393741 C195.895262,7.32356358 196.288084,8.76188134 197.119053,9.65515237 C197.602527,10.1699187 198.342845,10.4727225 199.113381,10.4727225 C199.883916,10.4727225 200.624234,10.1699187 201.107708,9.65515237 C201.938677,8.77702152 202.331499,7.32356358 202.331499,5.2190776 C202.331499,3.09945143 201.923569,1.64599349 201.107708,0.767862646 C200.624234,0.268236478 199.883916,-0.0497074475 199.143598,-0.0497074475 Z M199.128489,0.873843954 C199.627071,0.873843954 200.05011,1.11608695 200.397606,1.6308533 C200.865971,2.31216171 201.107708,3.50823648 201.107708,5.20393741 C201.107708,8.03515237 200.412715,9.54917106 199.113381,9.54917106 C197.814046,9.54917106 197.119053,8.03515237 197.119053,5.18879723 C197.119053,2.37272246 197.814046,0.873843954 199.128489,0.873843954 Z M206.788518,2.79664769 L206.788518,12.7891711 L207.891441,12.7891711 L207.891441,9.29178788 C208.42024,10.1396383 208.873496,10.4121617 209.780009,10.4121617 C210.414567,10.4121617 210.867823,10.2456197 211.245537,9.88225517 C211.985855,9.1555262 212.393786,7.94431124 212.393786,6.43029255 C212.393786,4.12898414 211.366405,2.64524582 209.780009,2.64524582 C208.828171,2.64524582 208.238938,3.08431124 207.785682,4.11384395 L207.785682,2.79664769 L206.788518,2.79664769 Z M207.891441,5.97608695 C207.891441,5.24935797 207.951875,4.96169442 208.178504,4.50748881 C208.510891,3.87160096 208.93393,3.56879723 209.523163,3.56879723 C210.565653,3.56879723 211.169994,4.62861031 211.169994,6.4908533 C211.169994,8.44393741 210.59587,9.48861031 209.538272,9.48861031 C209.054799,9.48861031 208.692194,9.30692807 208.374915,8.92842339 C207.966984,8.44393741 207.891441,8.14113367 207.891441,7.09646078 L207.891441,5.97608695 Z M212.998127,2.79664769 L214.916912,6.33945143 L212.801716,10.2607598 L213.965074,10.2607598 L215.491036,7.29328321 L217.047216,10.2607598 L218.331441,10.2607598 L216.140703,6.23347012 L217.983945,2.79664769 L216.865913,2.79664769 L215.581687,5.32505891 L214.252136,2.79664769 L212.998127,2.79664769 Z" id="640-px" fill="#7F7F7F"></path>
                <path d="M379.481854,8.4590776 C380.055979,9.91253554 380.796297,10.4727225 382.095632,10.4727225 C384.392129,10.4727225 385.646138,8.4590776 385.646138,4.79515237 C385.646138,2.88748881 385.31375,1.6308533 384.603649,0.843563581 C384.105067,0.268236478 383.334532,-0.0497074475 382.473345,-0.0497074475 C380.614995,-0.0497074475 379.345878,1.35832994 379.345878,3.43253554 C379.345878,5.38561966 380.539452,6.80879723 382.171174,6.80879723 C382.760407,6.80879723 383.334532,6.59683461 383.742462,6.23347012 C384.029524,5.97608695 384.195718,5.71870377 384.467672,5.12823648 C384.331695,8.14113367 383.651811,9.44318975 382.2165,9.44318975 C381.325096,9.44318975 380.886948,9.07982526 380.509235,7.9897318 L379.481854,8.4590776 Z M382.443128,0.979825263 C383.515834,0.979825263 384.271261,1.96393741 384.271261,3.3719748 C384.271261,4.78001218 383.485617,5.77926452 382.397802,5.77926452 C381.264662,5.77926452 380.524344,4.85571311 380.524344,3.43253554 C380.524344,1.91851685 381.249553,0.979825263 382.443128,0.979825263 Z M393.638555,2.2061804 C393.366601,1.4037505 393.155082,1.04038601 392.76226,0.661881338 C392.278786,0.20767573 391.583794,-0.0497074475 390.843475,-0.0497074475 C388.698063,-0.0497074475 387.368511,2.06991872 387.368511,5.50674115 C387.368511,8.64075984 388.592303,10.4727225 390.69239,10.4727225 C392.490306,10.4727225 393.729206,9.06468508 393.729206,7.00561966 C393.729206,5.03739536 392.55074,3.64449816 390.873692,3.64449816 C389.725443,3.64449816 389.000234,4.18954489 388.486543,5.41590003 C388.607412,2.28188134 389.302404,0.979825263 390.828367,0.979825263 C391.734879,0.979825263 392.203244,1.4037505 392.565849,2.56954489 L393.638555,2.2061804 Z M390.752824,4.67403087 C391.885964,4.67403087 392.55074,5.5673019 392.55074,7.08132059 C392.55074,8.59533928 391.901073,9.44318975 390.752824,9.44318975 C389.604575,9.44318975 388.743388,8.41365704 388.743388,7.03590003 C388.743388,5.64300283 389.574358,4.67403087 390.752824,4.67403087 Z M398.140899,-0.0497074475 C397.340147,-0.0497074475 396.614937,0.237956104 396.116355,0.767862646 C395.300494,1.64599349 394.892564,3.09945143 394.892564,5.20393741 C394.892564,7.32356358 395.285386,8.76188134 396.116355,9.65515237 C396.599828,10.1699187 397.340147,10.4727225 398.110682,10.4727225 C398.881218,10.4727225 399.621536,10.1699187 400.105009,9.65515237 C400.935979,8.77702152 401.328801,7.32356358 401.328801,5.2190776 C401.328801,3.09945143 400.92087,1.64599349 400.105009,0.767862646 C399.621536,0.268236478 398.881218,-0.0497074475 398.140899,-0.0497074475 Z M398.125791,0.873843954 C398.624372,0.873843954 399.047412,1.11608695 399.394908,1.6308533 C399.863273,2.31216171 400.105009,3.50823648 400.105009,5.20393741 C400.105009,8.03515237 399.410016,9.54917106 398.110682,9.54917106 C396.811348,9.54917106 396.116355,8.03515237 396.116355,5.18879723 C396.116355,2.37272246 396.811348,0.873843954 398.125791,0.873843954 Z M405.78582,2.79664769 L405.78582,12.7891711 L406.888743,12.7891711 L406.888743,9.29178788 C407.417542,10.1396383 407.870798,10.4121617 408.77731,10.4121617 C409.411869,10.4121617 409.865125,10.2456197 410.242838,9.88225517 C410.983157,9.1555262 411.391087,7.94431124 411.391087,6.43029255 C411.391087,4.12898414 410.363707,2.64524582 408.77731,2.64524582 C407.825472,2.64524582 407.236239,3.08431124 406.782983,4.11384395 L406.782983,2.79664769 L405.78582,2.79664769 Z M406.888743,5.97608695 C406.888743,5.24935797 406.949177,4.96169442 407.175805,4.50748881 C407.508193,3.87160096 407.931232,3.56879723 408.520465,3.56879723 C409.562954,3.56879723 410.167296,4.62861031 410.167296,6.4908533 C410.167296,8.44393741 409.593171,9.48861031 408.535574,9.48861031 C408.0521,9.48861031 407.689495,9.30692807 407.372216,8.92842339 C406.964286,8.44393741 406.888743,8.14113367 406.888743,7.09646078 L406.888743,5.97608695 Z M411.995429,2.79664769 L413.914213,6.33945143 L411.799018,10.2607598 L412.962375,10.2607598 L414.488338,7.29328321 L416.044517,10.2607598 L417.328743,10.2607598 L415.138005,6.23347012 L416.981247,2.79664769 L415.863215,2.79664769 L414.578989,5.32505891 L413.249438,2.79664769 L411.995429,2.79664769 Z" id="960-px" fill="#7F7F7F"></path>
                <path d="M550.564281,0.041133674 C549.959939,0.843563581 549.12897,1.60057293 548.373543,2.00935797 L548.373543,3.22057293 C549.12897,2.79664769 549.823963,2.22132059 550.171459,1.72169442 L550.171459,9.35234863 L548.464194,9.35234863 L548.464194,10.2607598 L553.011864,10.2607598 L553.011864,9.35234863 L551.395251,9.35234863 L551.395251,0.041133674 L550.564281,0.041133674 Z M555.459447,8.62561966 L555.459447,10.2607598 L556.078897,10.2607598 L555.187494,12.1835636 L555.852269,12.1835636 L556.834324,10.2607598 L556.834324,8.62561966 L555.459447,8.62561966 Z M559.448102,3.14487199 C559.67473,1.66113367 560.29418,0.979825263 561.397103,0.979825263 C562.515135,0.979825263 563.255453,1.79739536 563.255453,3.0237505 C563.255453,4.50748881 562.031662,6.05178788 558.375395,9.24636732 L558.375395,10.2607598 L564.464136,10.2607598 L564.464136,9.21608695 L559.750272,9.21608695 C563.255453,6.40001218 564.464136,4.79515237 564.464136,2.96318975 C564.464136,1.13122713 563.315887,-0.0497074475 561.517971,-0.0497074475 C560.671893,-0.0497074475 559.961792,0.237956104 559.387667,0.79814302 C558.84376,1.34318975 558.602023,1.82767573 558.375395,2.902629 L559.448102,3.14487199 Z M570.567986,4.84057293 C571.821994,4.26524582 572.365902,3.56879723 572.365902,2.50898414 C572.365902,0.979825263 571.217653,-0.0497074475 569.49528,-0.0497074475 C567.697363,-0.0497074475 566.48868,1.02524582 566.48868,2.59982526 C566.48868,3.64449816 566.941937,4.31066638 568.15062,4.9919748 C566.715308,5.65814302 566.095858,6.4908533 566.095858,7.73234863 C566.095858,9.42804956 567.349867,10.4727225 569.359303,10.4727225 C571.338521,10.4727225 572.69829,9.30692807 572.69829,7.61122713 C572.69829,6.3697318 572.033514,5.50674115 570.567986,4.84057293 Z M569.359303,4.43178788 C568.211054,4.02300283 567.697363,3.40225517 567.697363,2.46356358 C567.697363,1.52487199 568.407465,0.873843954 569.449954,0.873843954 C570.52266,0.873843954 571.278087,1.54001218 571.278087,2.49384395 C571.278087,3.38711498 570.749288,3.91702152 569.359303,4.43178788 Z M569.28376,5.53702152 C570.839939,6.08206825 571.474498,6.73309629 571.474498,7.77776919 C571.474498,8.83758227 570.62842,9.54917106 569.374411,9.54917106 C568.090185,9.54917106 567.228999,8.79216171 567.228999,7.68692807 C567.228999,6.68767573 567.818232,6.06692807 569.28376,5.53702152 Z M577.155308,-0.0497074475 C576.354556,-0.0497074475 575.629346,0.237956104 575.130764,0.767862646 C574.314903,1.64599349 573.906973,3.09945143 573.906973,5.20393741 C573.906973,7.32356358 574.299795,8.76188134 575.130764,9.65515237 C575.614238,10.1699187 576.354556,10.4727225 577.125091,10.4727225 C577.895627,10.4727225 578.635945,10.1699187 579.119418,9.65515237 C579.950388,8.77702152 580.34321,7.32356358 580.34321,5.2190776 C580.34321,3.09945143 579.93528,1.64599349 579.119418,0.767862646 C578.635945,0.268236478 577.895627,-0.0497074475 577.155308,-0.0497074475 Z M577.1402,0.873843954 C577.638782,0.873843954 578.061821,1.11608695 578.409317,1.6308533 C578.877682,2.31216171 579.119418,3.50823648 579.119418,5.20393741 C579.119418,8.03515237 578.424426,9.54917106 577.125091,9.54917106 C575.825757,9.54917106 575.130764,8.03515237 575.130764,5.18879723 C575.130764,2.37272246 575.825757,0.873843954 577.1402,0.873843954 Z M584.800229,2.79664769 L584.800229,12.7891711 L585.903152,12.7891711 L585.903152,9.29178788 C586.431951,10.1396383 586.885207,10.4121617 587.791719,10.4121617 C588.426278,10.4121617 588.879534,10.2456197 589.257248,9.88225517 C589.997566,9.1555262 590.405497,7.94431124 590.405497,6.43029255 C590.405497,4.12898414 589.378116,2.64524582 587.791719,2.64524582 C586.839882,2.64524582 586.250649,3.08431124 585.797392,4.11384395 L585.797392,2.79664769 L584.800229,2.79664769 Z M585.903152,5.97608695 C585.903152,5.24935797 585.963586,4.96169442 586.190214,4.50748881 C586.522602,3.87160096 586.945641,3.56879723 587.534874,3.56879723 C588.577363,3.56879723 589.181705,4.62861031 589.181705,6.4908533 C589.181705,8.44393741 588.607581,9.48861031 587.549983,9.48861031 C587.06651,9.48861031 586.703905,9.30692807 586.386625,8.92842339 C585.978695,8.44393741 585.903152,8.14113367 585.903152,7.09646078 L585.903152,5.97608695 Z M591.009838,2.79664769 L592.928623,6.33945143 L590.813427,10.2607598 L591.976785,10.2607598 L593.502747,7.29328321 L595.058926,10.2607598 L596.343152,10.2607598 L594.152414,6.23347012 L595.995656,2.79664769 L594.877624,2.79664769 L593.593398,5.32505891 L592.263847,2.79664769 L591.009838,2.79664769 Z" id="1,280-px" fill="#7F7F7F"></path>
                <path d="M1.6166136,2.58468508 C1.8130246,1.94879723 1.96410999,1.66113367 2.26628075,1.37347012 C2.58356006,1.0555262 3.06703329,0.873843954 3.56561505,0.873843954 C4.6081042,0.873843954 5.27287988,1.60057293 5.27287988,2.76636732 C5.27287988,3.34169442 5.09157742,3.81104022 4.74408104,4.14412433 C4.38147612,4.49234863 4.07930535,4.56804956 3.09725036,4.56804956 L2.44758321,4.56804956 L2.44758321,5.47646078 L3.09725036,5.47646078 C3.92821997,5.47646078 4.42680174,5.58244209 4.77429812,5.82468508 C5.27287988,6.15776919 5.52972504,6.7179561 5.52972504,7.44468508 C5.52972504,8.71646078 4.75918958,9.54917106 3.55050651,9.54917106 C2.97638205,9.54917106 2.38714906,9.30692807 1.99432706,8.91328321 C1.6921563,8.59533928 1.54107091,8.29253554 1.34465991,7.64150751 L0.347496382,7.9897318 C0.498581766,8.6861804 0.649667149,9.01926452 0.966946454,9.39776919 C1.54107091,10.0942178 2.46269175,10.4727225 3.56561505,10.4727225 C5.54483357,10.4727225 6.85927641,9.27664769 6.85927641,7.47496545 C6.85927641,6.12748881 6.19450072,5.27963835 4.88005789,4.94655423 C6.08874096,4.38636732 6.51178003,3.81104022 6.51178003,2.69066638 C6.51178003,1.01010564 5.40885673,-0.0497074475 3.65626628,-0.0497074475 C2.74975398,-0.0497074475 2.0094356,0.222815917 1.46552822,0.752722459 C1.05759768,1.14636732 0.876295224,1.52487199 0.664775687,2.29702152 L1.6166136,2.58468508 Z M9.35218524,3.14487199 C9.57881331,1.66113367 10.1982634,0.979825263 11.3011867,0.979825263 C12.4192185,0.979825263 13.1595369,1.79739536 13.1595369,3.0237505 C13.1595369,4.50748881 11.9357453,6.05178788 8.27947902,9.24636732 L8.27947902,10.2607598 L14.36822,10.2607598 L14.36822,9.21608695 L9.65435601,9.21608695 C13.1595369,6.40001218 14.36822,4.79515237 14.36822,2.96318975 C14.36822,1.13122713 13.2199711,-0.0497074475 11.422055,-0.0497074475 C10.5759768,-0.0497074475 9.86587554,0.237956104 9.29175109,0.79814302 C8.7478437,1.34318975 8.50610709,1.82767573 8.27947902,2.902629 L9.35218524,3.14487199 Z M19.3389291,-0.0497074475 C18.5381766,-0.0497074475 17.8129667,0.237956104 17.3143849,0.767862646 C16.4985239,1.64599349 16.0905933,3.09945143 16.0905933,5.20393741 C16.0905933,7.32356358 16.4834153,8.76188134 17.3143849,9.65515237 C17.7978582,10.1699187 18.5381766,10.4727225 19.308712,10.4727225 C20.0792475,10.4727225 20.8195658,10.1699187 21.3030391,9.65515237 C22.1340087,8.77702152 22.5268307,7.32356358 22.5268307,5.2190776 C22.5268307,3.09945143 22.1189001,1.64599349 21.3030391,0.767862646 C20.8195658,0.268236478 20.0792475,-0.0497074475 19.3389291,-0.0497074475 Z M19.3238205,0.873843954 C19.8224023,0.873843954 20.2454414,1.11608695 20.5929378,1.6308533 C21.0613025,2.31216171 21.3030391,3.50823648 21.3030391,5.20393741 C21.3030391,8.03515237 20.6080463,9.54917106 19.308712,9.54917106 C18.0093777,9.54917106 17.3143849,8.03515237 17.3143849,5.18879723 C17.3143849,2.37272246 18.0093777,0.873843954 19.3238205,0.873843954 Z M26.9838495,2.79664769 L26.9838495,12.7891711 L28.0867728,12.7891711 L28.0867728,9.29178788 C28.6155716,10.1396383 29.0688278,10.4121617 29.9753401,10.4121617 C30.6098987,10.4121617 31.0631548,10.2456197 31.4408683,9.88225517 C32.1811867,9.1555262 32.5891172,7.94431124 32.5891172,6.43029255 C32.5891172,4.12898414 31.5617366,2.64524582 29.9753401,2.64524582 C29.0235022,2.64524582 28.4342692,3.08431124 27.981013,4.11384395 L27.981013,2.79664769 L26.9838495,2.79664769 Z M28.0867728,5.97608695 C28.0867728,5.24935797 28.1472069,4.96169442 28.373835,4.50748881 C28.7062229,3.87160096 29.1292619,3.56879723 29.7184949,3.56879723 C30.7609841,3.56879723 31.3653256,4.62861031 31.3653256,6.4908533 C31.3653256,8.44393741 30.7912012,9.48861031 29.7336035,9.48861031 C29.2501302,9.48861031 28.8875253,9.30692807 28.570246,8.92842339 C28.1623155,8.44393741 28.0867728,8.14113367 28.0867728,7.09646078 L28.0867728,5.97608695 Z M33.1934588,2.79664769 L35.1122431,6.33945143 L32.9970478,10.2607598 L34.1604052,10.2607598 L35.6863676,7.29328321 L37.242547,10.2607598 L38.5267728,10.2607598 L36.3360347,6.23347012 L38.1792764,2.79664769 L37.0612446,2.79664769 L35.7770188,5.32505891 L34.4474674,2.79664769 L33.1934588,2.79664769 Z" id="320-px" fill="#7F7F7F"></path>
            </g>
        </g>
    </g>
</svg>